<svg width="17" height="14" viewBox="0 0 17 14" fill="none" xmlns="http://www.w3.org/2000/svg">
<path d="M15.6637 2.40102C15.6637 2.48063 16.1679 4.65672 14.7083 6.72667C13.6999 8.21278 12.028 9.24775 9.71921 9.85811C9.24154 9.9908 8.89655 10.4419 8.89655 10.9462C8.89655 11.5831 9.40076 12.0873 10.0377 12.0873H10.1704C10.8603 12.0873 11.4442 12.6711 11.4442 13.3611C11.4442 13.5999 11.2849 13.7857 11.0461 13.7857H5.12819C4.91589 13.7857 4.73013 13.5999 4.73013 13.3611C4.73013 12.6711 5.28742 12.0873 6.00394 12.0873H6.11009C6.74699 12.0873 7.27775 11.5831 7.25121 10.9462C7.25121 10.4419 6.93276 9.9908 6.42854 9.85811C4.11976 9.24775 2.44789 8.21278 1.46599 6.72667C0.0594929 4.65672 0.563709 2.48063 0.563709 2.40102C0.643322 2.10911 0.908699 1.8968 1.20061 1.8968H3.88092C3.85438 1.57835 3.85438 1.28644 3.88092 1.02106C3.88092 0.569919 4.25245 0.198392 4.73013 0.198392H11.4972C11.9749 0.198392 12.3464 0.569919 12.3464 1.02106C12.373 1.28644 12.373 1.57835 12.3464 1.8968H15.0268C15.3187 1.8968 15.584 2.10911 15.6637 2.40102ZM2.5275 6.03669C3.13787 6.9655 4.11976 7.68202 5.42011 8.21278C4.43821 6.67359 4.04015 4.76288 3.88092 3.17061H1.75791C1.73137 3.80752 1.78444 4.94864 2.5275 6.03669ZM13.6999 6.03669C14.4429 4.94864 14.496 3.80752 14.4695 3.17061H12.3464C12.1872 4.76288 11.7892 6.67359 10.8073 8.21278C12.1076 7.68202 13.0895 6.9655 13.6999 6.03669Z" fill="#080808" fill-opacity="0.25"/>
</svg>
