<svg width="13" height="14" viewBox="0 0 13 14" fill="none" xmlns="http://www.w3.org/2000/svg">
<path d="M12.5317 9.11506C12.5317 9.51312 12.346 9.83158 12.1071 10.0704V12.22C12.346 12.3792 12.5317 12.6446 12.5317 12.9365C12.5317 13.4142 12.1337 13.7857 11.6825 13.7857H3.19046C1.75742 13.7857 0.642836 12.6711 0.642836 11.2381V2.74601C0.642836 1.33951 1.75742 0.198392 3.19046 0.198392H5.73807V5.29363C5.73807 5.66516 6.13614 5.85092 6.40152 5.63862L7.86109 4.44442L9.29413 5.61208C9.5595 5.82438 9.98411 5.63862 9.98411 5.29363V0.198392H11.2579C11.9479 0.198392 12.5317 0.782221 12.5317 1.4722V9.11506ZM10.8333 12.0873V10.3889H3.19046C2.71278 10.3889 2.34125 10.7869 2.34125 11.2381C2.34125 11.7158 2.71278 12.0873 3.19046 12.0873H10.8333Z" fill="#080808" fill-opacity="0.25"/>
</svg>
