<svg width="39" height="35" viewBox="0 0 39 35" fill="none" xmlns="http://www.w3.org/2000/svg">
<circle cx="17.746" cy="17.9445" r="15.7103" stroke="#E6E6E6" stroke-width="2.54762" stroke-dasharray="3.4 3.4"/>
<mask id="path-2-inside-1_7_2778" fill="white">
<path d="M32.4547 26.4366C30.9289 29.0793 28.7193 31.2622 26.0581 32.7557C23.3969 34.2491 20.3826 34.998 17.3319 34.9236C14.2812 34.8492 11.3069 33.9542 8.72169 32.3328C6.1365 30.7113 4.03592 28.4233 2.64079 25.7093C1.24566 22.9953 0.607525 19.9555 0.793469 16.9096C0.979414 13.8637 1.98257 10.9241 3.69747 8.39996C5.41238 5.87581 7.77567 3.86031 10.5389 2.56538C13.3021 1.27045 16.3632 0.743914 19.4003 1.04114L17.746 17.9445L32.4547 26.4366Z"/>
</mask>
<path d="M32.4547 26.4366C30.9289 29.0793 28.7193 31.2622 26.0581 32.7557C23.3969 34.2491 20.3826 34.998 17.3319 34.9236C14.2812 34.8492 11.3069 33.9542 8.72169 32.3328C6.1365 30.7113 4.03592 28.4233 2.64079 25.7093C1.24566 22.9953 0.607525 19.9555 0.793469 16.9096C0.979414 13.8637 1.98257 10.9241 3.69747 8.39996C5.41238 5.87581 7.77567 3.86031 10.5389 2.56538C13.3021 1.27045 16.3632 0.743914 19.4003 1.04114L17.746 17.9445L32.4547 26.4366Z" stroke="url(#paint0_linear_7_2778)" stroke-width="5.09524" mask="url(#path-2-inside-1_7_2778)"/>
<mask id="path-3-inside-2_7_2778" fill="white">
<path d="M17.746 0.960334C14.1593 0.960334 10.6647 2.09581 7.76301 4.20401C4.86131 6.31222 2.70151 9.28493 1.59316 12.6961C0.484813 16.1072 0.484814 19.7817 1.59316 23.1928C2.70151 26.604 4.86131 29.5767 7.76301 31.6849C10.6647 33.7931 14.1593 34.9286 17.746 34.9286C21.3327 34.9286 24.8274 33.7931 27.729 31.6849C30.6307 29.5767 32.7905 26.604 33.8989 23.1928C35.0072 19.7817 35.0072 16.1072 33.8989 12.6961L17.746 17.9445L17.746 0.960334Z"/>
</mask>
<path d="M17.746 0.960334C14.1593 0.960334 10.6647 2.09581 7.76301 4.20401C4.86131 6.31222 2.70151 9.28493 1.59316 12.6961C0.484813 16.1072 0.484814 19.7817 1.59316 23.1928C2.70151 26.604 4.86131 29.5767 7.76301 31.6849C10.6647 33.7931 14.1593 34.9286 17.746 34.9286C21.3327 34.9286 24.8274 33.7931 27.729 31.6849C30.6307 29.5767 32.7905 26.604 33.8989 23.1928C35.0072 19.7817 35.0072 16.1072 33.8989 12.6961L17.746 17.9445L17.746 0.960334Z" stroke="url(#paint1_linear_7_2778)" stroke-width="5.09524" mask="url(#path-3-inside-2_7_2778)"/>
<circle cx="17.746" cy="17.9444" r="14.4365" fill="#FAFAFA"/>
<path d="M21.0229 19.8584V21.1322H14.0567L14.0037 20.1702L18.1701 13.6419H19.4505L18.0639 16.017L15.6689 19.8584H21.0229ZM19.8154 13.6419V23.3016H18.2165V13.6419H19.8154Z" fill="black"/>
<path d="M34.8986 10.8586L37.7448 11.2766C37.9836 11.3164 38.1826 11.4756 38.2623 11.7145C38.3419 11.9334 38.2822 12.1921 38.103 12.3514L36.0331 14.4014L36.5307 17.3073C36.5705 17.5461 36.471 17.785 36.2719 17.9243C36.0729 18.0835 35.8141 18.0835 35.5952 17.984L33.0476 16.6107L30.4801 17.984C30.281 18.0835 30.0024 18.0835 29.8233 17.9243C29.6242 17.785 29.5247 17.5461 29.5645 17.3073L30.0422 14.4014L27.9723 12.3514C27.7931 12.1921 27.7334 11.9334 27.813 11.7145C27.8926 11.4756 28.0917 11.3164 28.3305 11.2766L31.1966 10.8586L32.4704 8.21149C32.5699 7.99255 32.7889 7.85323 33.0476 7.85323C33.2864 7.85323 33.5054 7.99255 33.6049 8.21149L34.8986 10.8586Z" fill="#FF991F"/>
<defs>
<linearGradient id="paint0_linear_7_2778" x1="32.4547" y1="26.4366" x2="4.80239" y2="10.4715" gradientUnits="userSpaceOnUse">
<stop stop-color="#FFC887"/>
<stop offset="1" stop-color="#FFF1E0"/>
</linearGradient>
<linearGradient id="paint1_linear_7_2778" x1="33.4563" y1="13.6984" x2="17.746" y2="0.960336" gradientUnits="userSpaceOnUse">
<stop stop-color="#FFC887"/>
<stop offset="1" stop-color="#FFF1E0"/>
</linearGradient>
</defs>
</svg>
