<svg width="19" height="19" viewBox="0 0 19 19" fill="none" xmlns="http://www.w3.org/2000/svg">
<path d="M10.8498 1.51835V2.20815C13.3675 2.72549 15.2645 4.93284 15.2645 7.58854V8.24385C15.2645 9.86486 15.8508 11.4514 16.92 12.6585L17.1614 12.9344C17.4718 13.2793 17.5408 13.7277 17.3683 14.1416C17.1959 14.521 16.782 14.7624 16.3681 14.7624H3.12409C2.67572 14.7624 2.26185 14.521 2.0894 14.1416C1.91695 13.7277 1.98593 13.2793 2.29634 12.9344L2.53776 12.6585C3.60695 11.4514 4.22776 9.86486 4.22776 8.24385V7.58854C4.22776 4.93284 6.0902 2.72549 8.64244 2.20815V1.51835C8.64244 0.932029 9.1253 0.414684 9.74611 0.414684C10.3324 0.414684 10.8498 0.932029 10.8498 1.51835ZM9.74611 18.0734C9.15979 18.0734 8.57346 17.8665 8.15959 17.4526C7.74571 17.0387 7.53877 16.4524 7.53877 15.8661H11.9535C11.9535 16.4524 11.712 17.0387 11.2982 17.4526C10.8843 17.8665 10.2979 18.0734 9.74611 18.0734Z" fill="#107BEF"/>
</svg>
