<svg width="28" height="21" viewBox="0 0 28 21" fill="none" xmlns="http://www.w3.org/2000/svg">
<path d="M18.8013 4.9508L18.8013 4.95082L24.0759 10.1821L24.2253 10.3302L24.076 10.4784L18.8013 15.7131L18.7955 15.7189L18.7954 15.7188C18.6773 15.8271 18.5826 15.9578 18.5169 16.1031C18.4511 16.2484 18.4156 16.4053 18.4125 16.5644C18.4093 16.7235 18.4386 16.8816 18.4986 17.0293C18.5585 17.177 18.648 17.3113 18.7617 17.4241C18.8754 17.5369 19.0109 17.6259 19.1603 17.6856C19.3097 17.7454 19.4698 17.7746 19.6309 17.7715C19.7921 17.7685 19.9509 17.7332 20.0978 17.6678C20.2448 17.6025 20.3768 17.5085 20.4861 17.3914L20.4915 17.3856L20.4917 17.3857L26.7627 11.167L26.7628 11.1669M18.8013 4.9508L26.7628 11.1669M18.8013 4.9508L18.7991 4.94867C18.6284 4.78431 18.5113 4.57339 18.4624 4.343C18.4136 4.11263 18.4351 3.87302 18.5245 3.65479C18.6138 3.43655 18.7669 3.24943 18.9644 3.11759C19.1619 2.98579 19.3947 2.91532 19.6331 2.9154M18.8013 4.9508L19.6331 2.9154M26.7628 11.1669C26.9865 10.9448 27.1119 10.644 27.1119 10.3307C27.1119 10.0175 26.9865 9.71667 26.7628 9.4945M26.7628 11.1669L26.7628 9.4945M26.7628 9.4945C26.7628 9.49446 26.7627 9.49442 26.7627 9.49438M26.7628 9.4945L26.9097 9.34628L26.7627 9.49438M26.7628 9.4945L26.7627 9.49438M26.7628 9.4945L19.6331 2.9154M26.7627 9.49438L20.4917 3.27836L20.4893 3.27603L20.4894 3.27602C20.3783 3.16238 20.2453 3.07186 20.0982 3.00988C19.9511 2.94793 19.793 2.91579 19.6331 2.9154M16.0583 0.995432L16.059 0.995392L16.1779 0.994636C16.178 0.994639 16.1781 0.994643 16.1781 0.994647C16.3583 1.0029 16.5342 1.05141 16.6927 1.13647L16.7913 0.952814L16.6927 1.13647C16.8512 1.22157 16.9881 1.34101 17.0933 1.48576L17.2622 1.36305L17.0934 1.48576C17.1986 1.6305 17.2693 1.79682 17.3005 1.97229C17.3317 2.14776 17.3225 2.32795 17.2736 2.49943L17.2729 2.5022L12.7243 19.331L12.7242 19.3309L12.7224 19.3385C12.6867 19.4935 12.6198 19.6399 12.5256 19.7689C12.4314 19.8978 12.3119 20.0067 12.1741 20.089C12.0364 20.1713 11.8832 20.2252 11.7238 20.2475C11.5643 20.2698 11.402 20.26 11.2465 20.2186C11.0911 20.1773 10.9457 20.1053 10.8191 20.0071C10.6925 19.9088 10.5873 19.7864 10.5097 19.6471C10.4321 19.5078 10.3836 19.3545 10.3671 19.1963C10.3507 19.0382 10.3665 18.8784 10.4138 18.7264L10.4139 18.7264L10.416 18.7189L14.9611 1.89097L14.9611 1.89098L14.9618 1.88811C15.0243 1.64326 15.1642 1.42435 15.3614 1.26361C15.5587 1.10284 15.8029 1.00876 16.0583 0.995432ZM8.25831 2.91531L8.25859 2.9153C8.5002 2.90762 8.73837 2.97265 8.94176 3.10163C9.14514 3.23061 9.30413 3.41741 9.39811 3.63727C9.49208 3.85712 9.51675 4.09991 9.46895 4.33381C9.42115 4.56772 9.30306 4.78207 9.1299 4.94856L9.12989 4.94854L9.12764 4.95077L3.84952 10.182L3.70002 10.3302L3.84947 10.4784L9.12751 15.7131C9.12754 15.7131 9.12757 15.7132 9.12759 15.7132C9.23852 15.8233 9.32639 15.954 9.38628 16.0976C9.44618 16.2413 9.47693 16.3952 9.47682 16.5506C9.47671 16.706 9.44574 16.8598 9.38563 17.0034C9.32553 17.147 9.23744 17.2776 9.12632 17.3876C9.01519 17.4976 8.8832 17.5849 8.73785 17.6445C8.59249 17.704 8.43667 17.7346 8.27931 17.7345C8.12194 17.7343 7.96619 17.7034 7.82096 17.6435C7.67574 17.5837 7.54393 17.4961 7.43304 17.3859L7.4329 17.3857L1.16614 11.167C1.16613 11.167 1.16612 11.167 1.16611 11.167C0.94234 10.9448 0.816966 10.644 0.816966 10.3307C0.816966 10.0174 0.942329 9.71662 1.16608 9.49444C1.1661 9.49442 1.16612 9.4944 1.16614 9.49438L7.43287 3.27831L7.43289 3.27833L7.43525 3.27592C7.65153 3.05433 7.94675 2.92478 8.25831 2.91531Z" fill="#009E68" stroke="#EBFAF5" stroke-width="0.41738"/>
</svg>
