<svg width="19" height="19" viewBox="0 0 19 19" fill="none" xmlns="http://www.w3.org/2000/svg">
<path d="M15.9782 7.60869C15.9782 12.9348 9.13042 17.5 9.13042 17.5C9.13042 17.5 2.28259 12.9348 2.28259 7.60869C2.28259 5.79254 3.00406 4.05077 4.28827 2.76655C5.57249 1.48233 7.31426 0.760868 9.13042 0.760868C10.9466 0.760868 12.6883 1.48233 13.9726 2.76655C15.2568 4.05077 15.9782 5.79254 15.9782 7.60869Z" fill="#D9D9D9" fill-opacity="0.5" stroke="white" stroke-width="0.76087" stroke-linecap="round" stroke-linejoin="round"/>
<path d="M9.13039 9.89131C10.391 9.89131 11.413 8.86935 11.413 7.6087C11.413 6.34805 10.391 5.32609 9.13039 5.32609C7.86974 5.32609 6.84778 6.34805 6.84778 7.6087C6.84778 8.86935 7.86974 9.89131 9.13039 9.89131Z" stroke="white" stroke-width="0.76087" stroke-linecap="round" stroke-linejoin="round"/>
</svg>
