<svg width="136" height="43" viewBox="0 0 136 43" fill="none" xmlns="http://www.w3.org/2000/svg">
<path d="M35.886 33.4921L40.9094 7.83421L49.1014 26.3821L57.587 7.83421L62.1003 33.4921H58.4062L56.1032 19.0866L49.0395 34.5895L42.1768 19.0711L39.611 33.4921H35.886ZM77.6032 18.4374H81.0964V33.4921H77.6032V31.9155C76.1709 33.2551 74.6304 33.9249 72.9817 33.9249C70.9002 33.9249 69.1794 33.1726 67.8192 31.6682C66.4694 30.1329 65.7944 28.2162 65.7944 25.9184C65.7944 23.6617 66.4694 21.7812 67.8192 20.2767C69.1691 18.7723 70.859 18.0201 72.889 18.0201C74.6407 18.0201 76.2122 18.7414 77.6032 20.184V18.4374ZM69.3494 25.9184C69.3494 27.361 69.7359 28.5357 70.5087 29.4425C71.3021 30.3596 72.3016 30.8181 73.5073 30.8181C74.7953 30.8181 75.836 30.375 76.6295 29.4888C77.4229 28.5717 77.8196 27.4074 77.8196 25.9957C77.8196 24.584 77.4229 23.4196 76.6295 22.5025C75.836 21.606 74.8056 21.1578 73.5382 21.1578C72.3429 21.1578 71.3433 21.6111 70.5396 22.5179C69.7462 23.435 69.3494 24.5685 69.3494 25.9184ZM90.154 25.3465L84.7442 18.4374H88.8865L92.2406 22.8271L95.6565 18.4374H99.9225L94.3581 25.3465L100.804 33.4921H96.6612L92.2406 27.8659L87.7118 33.4921H83.4613L90.154 25.3465ZM106.646 18.4374V33.4921H103.168V18.4374H106.646ZM102.643 12.1775C102.643 11.5695 102.864 11.044 103.307 10.6009C103.751 10.1578 104.281 9.9363 104.9 9.9363C105.528 9.9363 106.064 10.1578 106.507 10.6009C106.95 11.0337 107.172 11.5644 107.172 12.193C107.172 12.8215 106.95 13.3573 106.507 13.8004C106.074 14.2435 105.544 14.4651 104.915 14.4651C104.286 14.4651 103.751 14.2435 103.307 13.8004C102.864 13.3573 102.643 12.8164 102.643 12.1775ZM114.653 21.6833V33.4921H111.159V21.6833H109.923V18.4374H111.159V12.6257C111.159 10.7297 111.489 9.39017 112.149 8.60704C113.055 7.51477 114.374 6.96864 116.106 6.96864C116.724 6.96864 117.502 7.14897 118.439 7.50962V11.0646L118.084 10.8791C117.332 10.4979 116.713 10.3073 116.229 10.3073C115.611 10.3073 115.194 10.5288 114.977 10.9719C114.761 11.4047 114.653 12.2393 114.653 13.4758V18.4374H118.439V21.6833H114.653ZM125.194 30.6944L118.424 18.4374H122.458L127.064 27.0931L131.361 18.4374H135.287L123.293 41.6841H119.32L125.194 30.6944Z" fill="black"/>
<path fill-rule="evenodd" clip-rule="evenodd" d="M22.4636 11.3828L23.1757 12.0949C24.3285 13.2477 24.4357 15.0656 23.4976 16.3421L23.4666 16.3418H15.3761L9.6552 10.6209L9.63298 10.5992C9.87229 9.03317 11.2337 7.82362 12.8639 7.82362H13.871C15.6685 7.82362 17.1392 9.29432 17.1392 11.0918V12.0852L17.8416 11.3828C19.1127 10.1117 21.1925 10.1117 22.4636 11.3828ZM17.1018 31.7828C16.8625 33.3489 15.5013 34.5585 13.871 34.5585H12.8639C11.0664 34.5585 9.59566 33.0878 9.59566 31.2903V30.2969L8.89322 30.9993C7.62215 32.2704 5.54241 32.2704 4.27135 30.9993L3.55915 30.2872C2.40643 29.1344 2.29915 27.3165 3.23733 26.0399L3.26828 26.0403H11.3588L17.0797 31.7612L17.1018 31.7828Z" fill="#107BEF"/>
<path fill-rule="evenodd" clip-rule="evenodd" d="M4.27136 11.3828L3.55917 12.0949C2.2881 13.3659 2.2881 15.4458 3.55917 16.7168L4.26161 17.4193H3.26829C1.4707 17.4193 0 18.89 0 20.6875V21.6946C0 23.4921 1.4707 24.9628 3.26829 24.9628H11.8051L17.8416 30.9993C19.1127 32.2703 21.1925 32.2703 22.4636 30.9993L23.1757 30.2872C24.4467 29.0161 24.4467 26.9363 23.1757 25.6652L22.4732 24.9628H23.4667C25.2641 24.9628 26.7348 23.4921 26.7348 21.6946V20.6875C26.7348 18.89 25.2641 17.4193 23.4667 17.4193H14.9297L8.89323 11.3828C7.62217 10.1117 5.54242 10.1117 4.27136 11.3828Z" fill="#11BFEF"/>
<path d="M73.9916 40.8256V35.387H74.8088C75.1728 35.387 75.4628 35.4152 75.6788 35.4716C75.8972 35.5279 76.0816 35.623 76.2319 35.7569C76.3845 35.8954 76.5054 36.068 76.5947 36.2747C76.6863 36.4837 76.732 36.695 76.732 36.9087C76.732 37.2985 76.5829 37.6284 76.2847 37.8985C76.5735 37.9971 76.8013 38.1697 76.968 38.4163C77.1371 38.6605 77.2217 38.9447 77.2217 39.2687C77.2217 39.6938 77.0714 40.053 76.7708 40.3466C76.59 40.5274 76.3868 40.653 76.1614 40.7235C75.9148 40.7916 75.606 40.8256 75.235 40.8256H73.9916ZM74.8123 37.7224H75.0695C75.3747 37.7224 75.5978 37.6555 75.7387 37.5216C75.882 37.3854 75.9536 37.1858 75.9536 36.9228C75.9536 36.6668 75.8808 36.4731 75.7352 36.3416C75.5896 36.2077 75.3783 36.1408 75.1012 36.1408H74.8123V37.7224ZM74.8123 40.0542H75.3196C75.6906 40.0542 75.963 39.9814 76.1368 39.8358C76.3199 39.6785 76.4115 39.4789 76.4115 39.237C76.4115 39.0022 76.3234 38.8049 76.1473 38.6453C75.9759 38.4879 75.6695 38.4093 75.228 38.4093H74.8123V40.0542ZM77.9473 38.0817C77.9473 37.3161 78.2279 36.6586 78.7891 36.1091C79.348 35.5596 80.0196 35.2849 80.804 35.2849C81.5789 35.2849 82.2434 35.562 82.7976 36.1162C83.3542 36.6704 83.6324 37.3361 83.6324 38.1134C83.6324 38.8953 83.353 39.5587 82.7941 40.1035C82.2329 40.6507 81.5554 40.9243 80.7617 40.9243C80.0595 40.9243 79.429 40.6812 78.8701 40.1951C78.2549 39.6574 77.9473 38.9529 77.9473 38.0817ZM78.775 38.0922C78.775 38.6934 78.977 39.1877 79.3809 39.5752C79.7825 39.9626 80.2462 40.1564 80.7722 40.1564C81.3429 40.1564 81.8243 39.9591 82.2164 39.5646C82.6086 39.1654 82.8047 38.6793 82.8047 38.1063C82.8047 37.5263 82.6109 37.0402 82.2235 36.648C81.8384 36.2535 81.3617 36.0563 80.7934 36.0563C80.2274 36.0563 79.7496 36.2535 79.3598 36.648C78.9699 37.0379 78.775 37.5193 78.775 38.0922ZM84.3933 38.0817C84.3933 37.3161 84.6739 36.6586 85.2351 36.1091C85.794 35.5596 86.4656 35.2849 87.25 35.2849C88.0249 35.2849 88.6894 35.562 89.2436 36.1162C89.8002 36.6704 90.0785 37.3361 90.0785 38.1134C90.0785 38.8953 89.799 39.5587 89.2401 40.1035C88.6789 40.6507 88.0014 40.9243 87.2077 40.9243C86.5056 40.9243 85.875 40.6812 85.3162 40.1951C84.7009 39.6574 84.3933 38.9529 84.3933 38.0817ZM85.2211 38.0922C85.2211 38.6934 85.423 39.1877 85.8269 39.5752C86.2285 39.9626 86.6922 40.1564 87.2183 40.1564C87.7889 40.1564 88.2703 39.9591 88.6624 39.5646C89.0546 39.1654 89.2507 38.6793 89.2507 38.1063C89.2507 37.5263 89.057 37.0402 88.6695 36.648C88.2844 36.2535 87.8077 36.0563 87.2394 36.0563C86.6735 36.0563 86.1956 36.2535 85.8058 36.648C85.416 37.0379 85.2211 37.5193 85.2211 38.0922ZM92.4138 36.1584V40.8256H91.5931V36.1584H90.3426V35.387H93.6607V36.1584H92.4138ZM98.2152 35.6794V36.6516C97.7409 36.2547 97.2501 36.0563 96.7428 36.0563C96.184 36.0563 95.7131 36.2571 95.3304 36.6586C94.9452 37.0578 94.7527 37.5463 94.7527 38.1239C94.7527 38.6946 94.9452 39.176 95.3304 39.5681C95.7155 39.9603 96.1875 40.1564 96.7464 40.1564C97.0352 40.1564 97.2806 40.1094 97.4826 40.0155C97.5953 39.9685 97.7115 39.9051 97.8313 39.8253C97.9534 39.7454 98.0814 39.6491 98.2152 39.5364V40.5262C97.7456 40.7916 97.2524 40.9243 96.7358 40.9243C95.9585 40.9243 95.2951 40.653 94.7456 40.1106C94.1985 39.5634 93.9249 38.9036 93.9249 38.131C93.9249 37.4382 94.1539 36.8206 94.6118 36.2782C95.1754 35.6136 95.9045 35.2814 96.7992 35.2814C97.2876 35.2814 97.7597 35.414 98.2152 35.6794ZM102.583 39.5047H100.255L99.6488 40.8256H98.7647L101.456 35.0453L104.052 40.8256H103.154L102.583 39.5047ZM102.248 38.7333L101.442 36.884L100.596 38.7333H102.248ZM104.545 40.8256L105.69 34.9784L107.557 39.2053L109.49 34.9784L110.519 40.8256H109.677L109.152 37.5427L107.543 41.0757L105.979 37.5392L105.394 40.8256H104.545ZM112.495 38.6171V40.8256H111.674V35.387H112.604C113.06 35.387 113.404 35.4187 113.636 35.4821C113.871 35.5455 114.078 35.6653 114.256 35.8414C114.569 36.1467 114.725 36.5318 114.725 36.9968C114.725 37.4946 114.558 37.8891 114.225 38.1803C113.891 38.4715 113.441 38.6171 112.875 38.6171H112.495ZM112.495 37.8562H112.802C113.555 37.8562 113.932 37.5662 113.932 36.9862C113.932 36.425 113.544 36.1443 112.766 36.1443H112.495V37.8562Z" fill="black"/>
</svg>
