<svg width="19" height="19" viewBox="0 0 19 19" fill="none" xmlns="http://www.w3.org/2000/svg">
<g clip-path="url(#clip0_5_1301)">
<path d="M11.9728 3.80435C12.7159 3.94934 13.3989 4.3128 13.9343 4.84821C14.4697 5.38362 14.8332 6.06661 14.9782 6.80978L11.9728 3.80435ZM11.9728 0.760868C13.5168 0.932396 14.9566 1.62383 16.0558 2.72163C17.155 3.81944 17.8482 5.25838 18.0217 6.80217L11.9728 0.760868ZM17.2608 12.8739V15.1565C17.2617 15.3684 17.2183 15.5782 17.1334 15.7723C17.0485 15.9665 16.924 16.1408 16.7678 16.284C16.6117 16.4273 16.4273 16.5363 16.2266 16.6042C16.0259 16.6721 15.8132 16.6973 15.6021 16.6783C13.2608 16.4239 11.0118 15.6238 9.0358 14.3424C7.19741 13.1742 5.63878 11.6156 4.47059 9.77717C3.1847 7.79222 2.38447 5.53228 2.13472 3.18043C2.1157 2.97003 2.14071 2.75797 2.20814 2.55776C2.27557 2.35754 2.38395 2.17357 2.52639 2.01754C2.66882 1.86151 2.84218 1.73684 3.03543 1.65148C3.22868 1.56612 3.43758 1.52194 3.64885 1.52174H5.93146C6.30071 1.5181 6.65869 1.64886 6.93866 1.88964C7.21864 2.13042 7.40151 2.46479 7.45319 2.83043C7.54954 3.56092 7.72821 4.27816 7.9858 4.96848C8.08817 5.24081 8.11033 5.53678 8.04964 5.82132C7.98896 6.10586 7.84798 6.36704 7.64341 6.57391L6.67711 7.54022C7.76025 9.44509 9.33745 11.0223 11.2423 12.1054L12.2086 11.1391C12.4155 10.9346 12.6767 10.7936 12.9612 10.7329C13.2458 10.6722 13.5417 10.6944 13.8141 10.7967C14.5044 11.0543 15.2216 11.233 15.9521 11.3293C16.3217 11.3815 16.6593 11.5677 16.9006 11.8524C17.1419 12.1372 17.2701 12.5008 17.2608 12.8739Z" fill="#D9D9D9" fill-opacity="0.5" stroke="white" stroke-width="0.76087" stroke-linecap="round" stroke-linejoin="round"/>
</g>
<defs>
<clipPath id="clip0_5_1301">
<rect width="18.2609" height="18.2609" fill="white" transform="translate(0.521729)"/>
</clipPath>
</defs>
</svg>
