<svg width="20" height="20" viewBox="0 0 20 20" fill="none" xmlns="http://www.w3.org/2000/svg">
<path d="M18.5088 16.7281C19.0261 17.28 19.0261 18.1422 18.5088 18.694C17.9569 19.2114 17.0947 19.2114 16.5429 18.694L12.4386 14.5553C11.0245 15.4865 9.30002 15.9694 7.43757 15.7279C4.26452 15.2796 1.71228 12.6928 1.29841 9.55427C0.712081 4.86367 4.6784 0.897353 9.369 1.48368C12.5076 1.89755 15.0943 4.44979 15.5427 7.62285C15.7841 9.48529 15.3012 11.2098 14.37 12.5894L18.5088 16.7281ZM3.9886 8.58856C3.9886 11.0373 5.95452 13.0032 8.40329 13.0032C10.8176 13.0032 12.818 11.0373 12.818 8.58856C12.818 6.17428 10.8176 4.17388 8.40329 4.17388C5.95452 4.17388 3.9886 6.17428 3.9886 8.58856Z" fill="#080808" fill-opacity="0.25"/>
</svg>
